<mxfile host="Electron" modified="2024-05-13T07:16:27.611Z" agent="Mozilla/5.0 (Windows NT 10.0; Win64; x64) AppleWebKit/537.36 (KHTML, like Gecko) draw.io/24.2.5 Chrome/120.0.6099.109 Electron/28.1.0 Safari/537.36" etag="S6z2wvkWntHzw-GajDrv" version="24.2.5" type="device">
  <diagram name="Page-1" id="ddhYvhvrO2799UlX6_iq">
    <mxGraphModel dx="1292" dy="986" grid="1" gridSize="10" guides="1" tooltips="1" connect="1" arrows="1" fold="1" page="1" pageScale="1" pageWidth="850" pageHeight="1100" math="0" shadow="0">
      <root>
        <mxCell id="0" />
        <mxCell id="1" parent="0" />
        <mxCell id="fInMuXzbxpinClQJHzNa-1" value="ADI Trinamic Motor Controller Lucy V2 2025-2026" style="text;html=1;align=center;verticalAlign=middle;resizable=0;points=[];autosize=1;strokeColor=none;fillColor=none;fontSize=23;fontStyle=4" vertex="1" parent="1">
          <mxGeometry x="160" y="70" width="530" height="40" as="geometry" />
        </mxCell>
        <mxCell id="fInMuXzbxpinClQJHzNa-4" value="" style="edgeStyle=orthogonalEdgeStyle;rounded=0;orthogonalLoop=1;jettySize=auto;html=1;" edge="1" parent="1" source="fInMuXzbxpinClQJHzNa-2" target="fInMuXzbxpinClQJHzNa-3">
          <mxGeometry relative="1" as="geometry" />
        </mxCell>
        <mxCell id="fInMuXzbxpinClQJHzNa-12" style="edgeStyle=orthogonalEdgeStyle;rounded=0;orthogonalLoop=1;jettySize=auto;html=1;entryX=0;entryY=0.5;entryDx=0;entryDy=0;" edge="1" parent="1" source="fInMuXzbxpinClQJHzNa-2" target="fInMuXzbxpinClQJHzNa-5">
          <mxGeometry relative="1" as="geometry" />
        </mxCell>
        <mxCell id="fInMuXzbxpinClQJHzNa-13" value="Optional FOC Controller Override" style="edgeLabel;html=1;align=center;verticalAlign=middle;resizable=0;points=[];" vertex="1" connectable="0" parent="fInMuXzbxpinClQJHzNa-12">
          <mxGeometry x="-0.0368" y="-2" relative="1" as="geometry">
            <mxPoint x="-31" y="8" as="offset" />
          </mxGeometry>
        </mxCell>
        <mxCell id="fInMuXzbxpinClQJHzNa-23" value="" style="edgeStyle=orthogonalEdgeStyle;rounded=0;orthogonalLoop=1;jettySize=auto;html=1;" edge="1" parent="1" source="fInMuXzbxpinClQJHzNa-2" target="fInMuXzbxpinClQJHzNa-19">
          <mxGeometry relative="1" as="geometry" />
        </mxCell>
        <mxCell id="fInMuXzbxpinClQJHzNa-2" value="MCU" style="rounded=1;whiteSpace=wrap;html=1;" vertex="1" parent="1">
          <mxGeometry x="260" y="425.71" width="120" height="60" as="geometry" />
        </mxCell>
        <mxCell id="fInMuXzbxpinClQJHzNa-6" value="" style="edgeStyle=orthogonalEdgeStyle;rounded=0;orthogonalLoop=1;jettySize=auto;html=1;" edge="1" parent="1" source="fInMuXzbxpinClQJHzNa-3" target="fInMuXzbxpinClQJHzNa-5">
          <mxGeometry relative="1" as="geometry" />
        </mxCell>
        <mxCell id="fInMuXzbxpinClQJHzNa-3" value="Trinamic FOC Controller" style="rounded=1;whiteSpace=wrap;html=1;" vertex="1" parent="1">
          <mxGeometry x="425" y="425.71" width="120" height="60" as="geometry" />
        </mxCell>
        <mxCell id="fInMuXzbxpinClQJHzNa-8" value="" style="edgeStyle=orthogonalEdgeStyle;rounded=0;orthogonalLoop=1;jettySize=auto;html=1;" edge="1" parent="1" source="fInMuXzbxpinClQJHzNa-27" target="fInMuXzbxpinClQJHzNa-7">
          <mxGeometry relative="1" as="geometry" />
        </mxCell>
        <mxCell id="fInMuXzbxpinClQJHzNa-5" value="Trinamic Gate Driver" style="rounded=1;whiteSpace=wrap;html=1;" vertex="1" parent="1">
          <mxGeometry x="425" y="555.71" width="120" height="60" as="geometry" />
        </mxCell>
        <mxCell id="fInMuXzbxpinClQJHzNa-7" value="3-phase Motor" style="rounded=1;whiteSpace=wrap;html=1;" vertex="1" parent="1">
          <mxGeometry x="425" y="720" width="120" height="60" as="geometry" />
        </mxCell>
        <mxCell id="fInMuXzbxpinClQJHzNa-9" value="TMC6100 or TMC6200" style="text;align=center;verticalAlign=middle;resizable=0;points=[];autosize=1;strokeColor=#d79b00;fillColor=#ffe6cc;fontFamily=Verdana;textShadow=0;html=1;horizontal=1;" vertex="1" parent="1">
          <mxGeometry x="570" y="570.71" width="160" height="30" as="geometry" />
        </mxCell>
        <mxCell id="fInMuXzbxpinClQJHzNa-11" value="TMC4671" style="text;align=center;verticalAlign=middle;resizable=0;points=[];autosize=1;strokeColor=#d79b00;fillColor=#ffe6cc;fontFamily=Verdana;textShadow=0;html=1;horizontal=1;" vertex="1" parent="1">
          <mxGeometry x="570" y="440.71" width="80" height="30" as="geometry" />
        </mxCell>
        <mxCell id="fInMuXzbxpinClQJHzNa-15" value="" style="edgeStyle=orthogonalEdgeStyle;rounded=0;orthogonalLoop=1;jettySize=auto;html=1;startArrow=classic;startFill=1;" edge="1" parent="1" source="fInMuXzbxpinClQJHzNa-14" target="fInMuXzbxpinClQJHzNa-3">
          <mxGeometry relative="1" as="geometry" />
        </mxCell>
        <mxCell id="fInMuXzbxpinClQJHzNa-24" value="RTMI / QSPI" style="edgeLabel;html=1;align=center;verticalAlign=middle;resizable=0;points=[];" vertex="1" connectable="0" parent="fInMuXzbxpinClQJHzNa-15">
          <mxGeometry x="-0.0462" y="-4" relative="1" as="geometry">
            <mxPoint x="49" y="1" as="offset" />
          </mxGeometry>
        </mxCell>
        <mxCell id="fInMuXzbxpinClQJHzNa-14" value="FT4222HQ&lt;div&gt;RTMI - USB&lt;/div&gt;" style="rounded=1;whiteSpace=wrap;html=1;" vertex="1" parent="1">
          <mxGeometry x="425" y="180" width="120" height="60" as="geometry" />
        </mxCell>
        <mxCell id="fInMuXzbxpinClQJHzNa-17" value="" style="edgeStyle=orthogonalEdgeStyle;rounded=0;orthogonalLoop=1;jettySize=auto;html=1;" edge="1" parent="1" source="fInMuXzbxpinClQJHzNa-16" target="fInMuXzbxpinClQJHzNa-14">
          <mxGeometry relative="1" as="geometry" />
        </mxCell>
        <mxCell id="fInMuXzbxpinClQJHzNa-22" value="" style="edgeStyle=orthogonalEdgeStyle;rounded=0;orthogonalLoop=1;jettySize=auto;html=1;startArrow=classic;startFill=1;" edge="1" parent="1" source="fInMuXzbxpinClQJHzNa-16" target="fInMuXzbxpinClQJHzNa-19">
          <mxGeometry relative="1" as="geometry" />
        </mxCell>
        <mxCell id="fInMuXzbxpinClQJHzNa-25" value="USB" style="edgeLabel;html=1;align=center;verticalAlign=middle;resizable=0;points=[];" vertex="1" connectable="0" parent="fInMuXzbxpinClQJHzNa-22">
          <mxGeometry x="-0.25" y="-3" relative="1" as="geometry">
            <mxPoint x="23" y="5" as="offset" />
          </mxGeometry>
        </mxCell>
        <mxCell id="fInMuXzbxpinClQJHzNa-16" value="Diagnostic PC" style="rounded=1;whiteSpace=wrap;html=1;" vertex="1" parent="1">
          <mxGeometry x="260" y="180" width="120" height="60" as="geometry" />
        </mxCell>
        <mxCell id="fInMuXzbxpinClQJHzNa-21" value="" style="edgeStyle=orthogonalEdgeStyle;rounded=0;orthogonalLoop=1;jettySize=auto;html=1;startArrow=classic;startFill=1;" edge="1" parent="1" source="fInMuXzbxpinClQJHzNa-19" target="fInMuXzbxpinClQJHzNa-2">
          <mxGeometry relative="1" as="geometry" />
        </mxCell>
        <mxCell id="fInMuXzbxpinClQJHzNa-26" value="Serial" style="edgeLabel;html=1;align=center;verticalAlign=middle;resizable=0;points=[];" vertex="1" connectable="0" parent="fInMuXzbxpinClQJHzNa-21">
          <mxGeometry x="0.36" y="4" relative="1" as="geometry">
            <mxPoint x="16" y="-14" as="offset" />
          </mxGeometry>
        </mxCell>
        <mxCell id="fInMuXzbxpinClQJHzNa-19" value="FT234XD" style="rounded=1;whiteSpace=wrap;html=1;" vertex="1" parent="1">
          <mxGeometry x="260" y="300" width="120" height="60" as="geometry" />
        </mxCell>
        <mxCell id="fInMuXzbxpinClQJHzNa-28" value="" style="edgeStyle=orthogonalEdgeStyle;rounded=0;orthogonalLoop=1;jettySize=auto;html=1;" edge="1" parent="1" source="fInMuXzbxpinClQJHzNa-5" target="fInMuXzbxpinClQJHzNa-27">
          <mxGeometry relative="1" as="geometry">
            <mxPoint x="485" y="616" as="sourcePoint" />
            <mxPoint x="485" y="720" as="targetPoint" />
          </mxGeometry>
        </mxCell>
        <mxCell id="fInMuXzbxpinClQJHzNa-27" value="Power Stage" style="triangle;whiteSpace=wrap;html=1;rotation=90;verticalAlign=middle;horizontal=0;align=center;labelPosition=center;verticalLabelPosition=middle;" vertex="1" parent="1">
          <mxGeometry x="455" y="630" width="60" height="80" as="geometry" />
        </mxCell>
        <mxCell id="fInMuXzbxpinClQJHzNa-30" style="edgeStyle=orthogonalEdgeStyle;rounded=0;orthogonalLoop=1;jettySize=auto;html=1;entryX=0;entryY=0.5;entryDx=0;entryDy=0;startArrow=classic;startFill=1;" edge="1" parent="1" source="fInMuXzbxpinClQJHzNa-29" target="fInMuXzbxpinClQJHzNa-2">
          <mxGeometry relative="1" as="geometry">
            <Array as="points">
              <mxPoint x="170" y="456" />
            </Array>
          </mxGeometry>
        </mxCell>
        <mxCell id="fInMuXzbxpinClQJHzNa-31" value="CAN TX/RX" style="edgeLabel;html=1;align=center;verticalAlign=middle;resizable=0;points=[];" vertex="1" connectable="0" parent="fInMuXzbxpinClQJHzNa-30">
          <mxGeometry x="-0.4536" y="1" relative="1" as="geometry">
            <mxPoint as="offset" />
          </mxGeometry>
        </mxCell>
        <mxCell id="fInMuXzbxpinClQJHzNa-36" value="" style="edgeStyle=orthogonalEdgeStyle;rounded=0;orthogonalLoop=1;jettySize=auto;html=1;" edge="1" parent="1" source="fInMuXzbxpinClQJHzNa-29" target="fInMuXzbxpinClQJHzNa-32">
          <mxGeometry relative="1" as="geometry" />
        </mxCell>
        <mxCell id="fInMuXzbxpinClQJHzNa-29" value="MCP2542" style="rounded=1;whiteSpace=wrap;html=1;" vertex="1" parent="1">
          <mxGeometry x="110" y="300" width="120" height="60" as="geometry" />
        </mxCell>
        <mxCell id="fInMuXzbxpinClQJHzNa-33" value="" style="edgeStyle=orthogonalEdgeStyle;rounded=0;orthogonalLoop=1;jettySize=auto;html=1;" edge="1" parent="1" source="fInMuXzbxpinClQJHzNa-32" target="fInMuXzbxpinClQJHzNa-29">
          <mxGeometry relative="1" as="geometry" />
        </mxCell>
        <mxCell id="fInMuXzbxpinClQJHzNa-34" value="" style="edgeStyle=orthogonalEdgeStyle;rounded=0;orthogonalLoop=1;jettySize=auto;html=1;" edge="1" parent="1" source="fInMuXzbxpinClQJHzNa-32" target="fInMuXzbxpinClQJHzNa-29">
          <mxGeometry relative="1" as="geometry" />
        </mxCell>
        <mxCell id="fInMuXzbxpinClQJHzNa-37" value="CAN H / L" style="edgeLabel;html=1;align=center;verticalAlign=middle;resizable=0;points=[];" vertex="1" connectable="0" parent="fInMuXzbxpinClQJHzNa-34">
          <mxGeometry x="0.102" relative="1" as="geometry">
            <mxPoint as="offset" />
          </mxGeometry>
        </mxCell>
        <mxCell id="fInMuXzbxpinClQJHzNa-32" value="Vehicle Systems" style="rounded=1;whiteSpace=wrap;html=1;" vertex="1" parent="1">
          <mxGeometry x="110" y="180" width="120" height="60" as="geometry" />
        </mxCell>
      </root>
    </mxGraphModel>
  </diagram>
</mxfile>
